<svg width="14" height="14" viewBox="0 0 14 14" fill="none" xmlns="http://www.w3.org/2000/svg">
<path d="M12.9062 4.91261H11.271C11.2314 3.5904 10.2741 2.49482 9.01562 2.24238V0.546875C9.01562 0.244836 8.77078 0 8.46874 0H1.09375C0.791711 0 0.546875 0.244836 0.546875 0.546875V13.4531C0.546875 13.7552 0.791711 14 1.09375 14H12.9062C13.2083 14 13.4531 13.7552 13.4531 13.4531V5.45948C13.4531 5.15744 13.2083 4.91261 12.9062 4.91261ZM10.1765 4.91261H6.74754C6.79213 4.00553 7.54406 3.28125 8.46202 3.28125C9.37994 3.28125 10.1319 4.00553 10.1765 4.91261ZM3.47088 5.45948V12.9062H1.64062V1.09375H2.711L3.47268 1.85544C3.57522 1.958 3.71435 2.01562 3.85938 2.01562H5.70311C5.84814 2.01562 5.98727 1.958 6.08981 1.85544L6.85152 1.09375H7.92187V2.23978C6.65678 2.48708 5.69278 3.58567 5.65302 4.91261H4.01773C3.71571 4.91261 3.47088 5.15744 3.47088 5.45948ZM12.3594 12.9062H4.56463V6.00636H5.65163V7.64698C5.65163 7.94902 5.89646 8.19386 6.1985 8.19386C6.50054 8.19386 6.74538 7.94902 6.74538 7.64698V6.00636H10.1787V7.64698C10.1787 7.94902 10.4235 8.19386 10.7255 8.19386C11.0276 8.19386 11.2724 7.94902 11.2724 7.64698V6.00636H12.3594V12.9062Z" fill="white"/>
</svg>
