<svg width="10" height="5" viewBox="0 0 10 5" fill="none" xmlns="http://www.w3.org/2000/svg">
<path d="M4.83758 0.0542293C4.92477 -0.0216941 5.05079 -0.00463718 5.11906 0.0923272L5.40182 0.493938C5.47008 0.590901 5.45475 0.731055 5.36756 0.806978L0.606882 4.95257C0.519694 5.0285 0.393671 5.01144 0.325403 4.91448L0.0426452 4.51286C-0.0256234 4.4159 -0.010286 4.27575 0.0769021 4.19982L4.83758 0.0542293Z" fill="white"/>
<path d="M4.57059 0.808919C4.48208 0.734909 4.46428 0.595116 4.53083 0.496684L4.80646 0.0889922C4.87301 -0.00944036 4.99871 -0.0292386 5.08722 0.0447713L9.91998 4.08589C10.0085 4.1599 10.0263 4.29969 9.95974 4.39812L9.68411 4.80581C9.61756 4.90425 9.49187 4.92404 9.40336 4.85003L4.57059 0.808919Z" fill="white"/>
</svg>
