<svg width="10" height="5" viewBox="0 0 10 5" fill="none" xmlns="http://www.w3.org/2000/svg">
<path d="M5.16242 4.94577C5.07523 5.02169 4.94921 5.00464 4.88094 4.90767L4.59818 4.50606C4.52992 4.4091 4.54525 4.26894 4.63244 4.19302L9.39312 0.0474269C9.48031 -0.0284964 9.60633 -0.0114395 9.6746 0.0855248L9.95735 0.487135C10.0256 0.584099 10.0103 0.724253 9.9231 0.800176L5.16242 4.94577Z" fill="#DBE1E9"/>
<path d="M5.42941 4.19108C5.51792 4.26509 5.53572 4.40488 5.46917 4.50332L5.19354 4.91101C5.12699 5.00944 5.00129 5.02924 4.91278 4.95523L0.0800199 0.914113C-0.00848774 0.840103 -0.0262909 0.700311 0.0402574 0.601879L0.315888 0.194187C0.382437 0.0957544 0.508135 0.075956 0.596643 0.149966L5.42941 4.19108Z" fill="#DBE1E9"/>
</svg>
