<svg width="14" height="14" viewBox="0 0 14 14" fill="none" xmlns="http://www.w3.org/2000/svg">
<path d="M6.99995 4.8125C5.78424 4.8125 4.79524 5.79381 4.79524 7C4.79524 8.20619 5.78427 9.1875 6.99995 9.1875C8.21563 9.1875 9.20467 8.20619 9.20467 7C9.20467 5.79381 8.21566 4.8125 6.99995 4.8125ZM6.99995 8.09375C6.39211 8.09375 5.89759 7.60309 5.89759 7C5.89759 6.39691 6.39211 5.90625 6.99995 5.90625C7.60779 5.90625 8.10231 6.39691 8.10231 7C8.10231 7.60309 7.60779 8.09375 6.99995 8.09375Z" fill="white"/>
<path d="M13.784 8.6307L12.3568 7.54562C12.3969 7.17032 12.3945 6.80679 12.3568 6.45441L13.784 5.36933C14.0053 5.20111 14.0651 4.89546 13.9234 4.65727L12.5413 2.33365C12.4036 2.10216 12.1168 2.00427 11.8646 2.10279L10.1713 2.76451C9.86202 2.54491 9.53101 2.35884 9.18181 2.20831L8.9276 0.468426C8.8883 0.1995 8.65598 0 8.38213 0H5.61785C5.344 0 5.11168 0.1995 5.07241 0.468453L4.8182 2.20834C4.469 2.35889 4.13799 2.54494 3.82872 2.76453L2.13536 2.10282C1.8832 2.00427 1.59639 2.10219 1.45871 2.33368L0.0765429 4.65727C-0.0651378 4.89546 -0.00527967 5.20111 0.215964 5.36933L1.64322 6.45438C1.60309 6.82968 1.60554 7.19321 1.64322 7.54559L0.215991 8.63067C-0.00527971 8.79889 -0.0651378 9.10454 0.0765705 9.34273L1.45868 11.6663C1.59637 11.8978 1.8832 11.9957 2.13534 11.8972L3.82872 11.2355C4.13794 11.4551 4.46897 11.6412 4.81817 11.7917L5.07238 13.5316C5.11168 13.8005 5.344 14 5.61785 14H8.38213C8.65598 14 8.8883 13.8005 8.9276 13.5316L9.18181 11.7917C9.53101 11.6412 9.86204 11.4551 10.1713 11.2355L11.8646 11.8972C12.1168 11.9958 12.4036 11.8978 12.5413 11.6664L13.9234 9.34276C14.0651 9.10457 14.0053 8.79892 13.784 8.6307ZM11.831 10.7085L10.2864 10.105C10.1013 10.0327 9.89153 10.0649 9.73715 10.1891C9.36447 10.4891 8.94615 10.7239 8.49385 10.8868C8.30292 10.9555 8.16562 11.1229 8.13647 11.3224L7.90508 12.9062H6.09487L5.86351 11.3224C5.83436 11.1229 5.69706 10.9555 5.50613 10.8868C5.05383 10.7238 4.63551 10.4891 4.26283 10.1891C4.10845 10.0649 3.89856 10.0327 3.71358 10.105L2.16899 10.7085L1.27412 9.2041L2.56829 8.22016C2.73094 8.09648 2.81105 7.89351 2.77622 7.69314C2.69509 7.22624 2.69776 6.75834 2.77622 6.30684C2.81105 6.10646 2.73094 5.90346 2.56829 5.77981L1.27412 4.79588L2.16899 3.29145L3.71358 3.89501C3.89864 3.96733 4.10845 3.93512 4.26283 3.81087C4.63554 3.51086 5.05386 3.27614 5.50613 3.11322C5.69706 3.04445 5.83436 2.87708 5.86351 2.67764L6.0949 1.09375H7.90511L8.13647 2.67764C8.16562 2.87708 8.30292 3.04445 8.49385 3.11322C8.94612 3.27614 9.36444 3.51086 9.73715 3.81087C9.89153 3.93515 10.1014 3.9673 10.2864 3.89501L11.831 3.29145L12.7258 4.79588L11.4317 5.77981C11.269 5.90349 11.1889 6.10646 11.2237 6.30684C11.3049 6.77373 11.3022 7.24164 11.2237 7.69314C11.1889 7.89351 11.269 8.09651 11.4317 8.22016L12.7258 9.2041L11.831 10.7085Z" fill="white"/>
</svg>
