<svg width="14" height="14" viewBox="0 0 14 14" fill="none" xmlns="http://www.w3.org/2000/svg">
<path d="M13.4531 0H0.546875C0.244836 0 0 0.244836 0 0.546875V11.2656C0 11.5677 0.244836 11.8125 0.546875 11.8125H4.58598L6.6133 13.8398C6.82686 14.0534 7.17314 14.0534 7.38672 13.8398L9.41402 11.8125H13.4531C13.7552 11.8125 14 11.5677 14 11.2656V0.546875C14 0.244836 13.7552 0 13.4531 0ZM12.9062 10.7188H9.1875C9.04244 10.7188 8.90334 10.7764 8.80078 10.8789L7 12.6797L5.19922 10.8789C5.09666 10.7764 4.95756 10.7188 4.8125 10.7188H1.09375V1.09375H12.9062V10.7188ZM4.91736 6.88319L4.61303 8.65758C4.53655 9.10345 5.00588 9.4447 5.40652 9.23407L7 8.39631L8.59348 9.23407C8.9924 9.44385 9.46378 9.10544 9.38697 8.65758L9.08264 6.88319L10.3718 5.62655C10.6958 5.31079 10.5167 4.75885 10.0687 4.69375L8.28715 4.43486L7.49038 2.82045C7.29017 2.41475 6.70988 2.41459 6.50959 2.82045L5.71282 4.43486L3.93124 4.69375C3.48351 4.7588 3.304 5.31059 3.62816 5.62655L4.91736 6.88319ZM6.15464 5.47589C6.33279 5.45002 6.48676 5.33813 6.56641 5.17675L7 4.29816L7.43359 5.17672C7.51324 5.33813 7.66721 5.44999 7.84536 5.47586L8.81489 5.61673L8.11333 6.3006C7.98443 6.42625 7.92561 6.60726 7.95605 6.78467L8.12167 7.75026L7.25449 7.29436C7.09521 7.2106 6.90484 7.21058 6.74554 7.29436L5.87836 7.75026L6.04398 6.78467C6.07441 6.60726 6.0156 6.42625 5.8867 6.3006L5.18514 5.61673L6.15464 5.47589Z" fill="white"/>
</svg>
