<svg width="14" height="14" viewBox="0 0 14 14" fill="none" xmlns="http://www.w3.org/2000/svg">
<path d="M10.6094 3.60937H3.39062C3.08859 3.60937 2.84375 3.36454 2.84375 3.0625C2.84375 2.76046 3.08859 2.51562 3.39062 2.51562H10.6094C10.9114 2.51562 11.1562 2.76046 11.1562 3.0625C11.1562 3.36454 10.9114 3.60937 10.6094 3.60937ZM11.1562 5.90625C11.1562 5.60421 10.9114 5.35937 10.6094 5.35937H3.39062C3.08859 5.35937 2.84375 5.60421 2.84375 5.90625C2.84375 6.20829 3.08859 6.45312 3.39062 6.45312H10.6094C10.9114 6.45312 11.1562 6.20829 11.1562 5.90625ZM7.54688 8.75C7.54688 8.44796 7.30204 8.20312 7 8.20312H3.39062C3.08859 8.20312 2.84375 8.44796 2.84375 8.75C2.84375 9.05204 3.08859 9.29687 3.39062 9.29687H7C7.30204 9.29687 7.54688 9.05204 7.54688 8.75ZM7.3867 13.8398L9.41402 11.8125H13.4531C13.7552 11.8125 14 11.5677 14 11.2656V0.546875C14 0.244836 13.7552 0 13.4531 0H0.546875C0.244836 0 0 0.244836 0 0.546875V11.2656C0 11.5677 0.244836 11.8125 0.546875 11.8125H4.58598L6.6133 13.8398C6.82689 14.0534 7.17314 14.0534 7.3867 13.8398ZM1.09375 1.09375H12.9062V10.7187H9.1875C9.04247 10.7187 8.90334 10.7764 8.80081 10.8789L7 12.6797L5.1992 10.8789C5.09666 10.7764 4.95753 10.7187 4.8125 10.7187H1.09375V1.09375Z" fill="#DBE1E9"/>
</svg>
