<svg width="14" height="14" viewBox="0 0 14 14" fill="none" xmlns="http://www.w3.org/2000/svg">
<path d="M13.2501 4.74221C13.0653 4.17018 13.1441 3.3115 12.6639 2.6485C12.18 1.98027 11.3383 1.79034 10.8631 1.44275C10.3928 1.09882 9.95531 0.350392 9.16429 0.0922669C8.39557 -0.158585 7.60949 0.181818 7 0.181818C6.39059 0.181818 5.60457 -0.158667 4.83571 0.0922396C4.04482 0.35031 3.60697 1.0989 3.13701 1.44267C2.66227 1.78985 1.81997 1.9803 1.33612 2.64842C0.856379 3.31087 0.934336 4.17152 0.74993 4.74218C0.574437 5.28531 0 5.93716 0 6.78131C0 7.62599 0.573781 8.27532 0.74993 8.82042C0.934664 9.39245 0.855914 10.2511 1.33607 10.9141C1.81997 11.5824 2.66161 11.7723 3.13693 12.1199C3.60711 12.4638 4.04469 13.2123 4.83571 13.4704C5.60391 13.721 6.39122 13.3808 7 13.3808C7.60793 13.3808 8.39707 13.7207 9.16429 13.4704C9.9552 13.2123 10.3928 12.4639 10.863 12.12C11.3377 11.7728 12.18 11.5823 12.6639 10.9142C13.1436 10.2517 13.0656 9.39117 13.2501 8.82045C13.4256 8.27729 14 7.62544 14 6.78131C14 5.93669 13.4264 5.28755 13.2501 4.74221ZM12.2093 8.48412C11.994 9.15062 12.0504 9.89653 11.7781 10.2726C11.5021 10.6537 10.7769 10.8278 10.2174 11.2371C9.66399 11.6418 9.27612 12.2833 8.825 12.4305C8.39822 12.5698 7.70271 12.287 7.00003 12.287C6.29221 12.287 5.60386 12.5704 5.17502 12.4305C4.72396 12.2833 4.33664 11.6422 3.78262 11.237C3.2264 10.8302 2.49714 10.6526 2.22193 10.2726C1.95046 9.89774 2.00473 9.14666 1.79071 8.48415C1.58093 7.83503 1.09375 7.27298 1.09375 6.78131C1.09375 6.28915 1.5805 5.72904 1.79066 5.07851C2.00599 4.41203 1.94958 3.66607 2.22193 3.29001C2.49777 2.90917 3.22345 2.73452 3.78262 2.32557C4.33779 1.91954 4.72322 1.27951 5.17497 1.1321C5.60139 0.99297 6.29918 1.27562 6.99997 1.27562C7.70908 1.27562 8.39571 0.992013 8.82498 1.1321C9.27598 1.27926 9.66364 1.92063 10.2174 2.3256C10.7735 2.73239 11.5029 2.91004 11.7781 3.29004C12.0496 3.66495 11.995 4.41526 12.2093 5.07845C12.4191 5.72757 12.9062 6.28965 12.9062 6.78131C12.9062 7.27348 12.4195 7.83358 12.2093 8.48412ZM9.51954 5.02598C9.73312 5.23956 9.73312 5.58582 9.51954 5.79937L6.78226 8.53665C6.56868 8.75023 6.2224 8.7502 6.00884 8.53665L4.48049 7.0083C4.26691 6.79471 4.26688 6.44846 4.48046 6.2349C4.69405 6.02135 5.04036 6.02132 5.25386 6.2349L6.39554 7.37656L8.74609 5.02601C8.95967 4.81243 9.30595 4.81243 9.51954 5.02598Z" fill="#DBE1E9"/>
</svg>
