<svg width="14" height="14" viewBox="0 0 14 14" fill="none" xmlns="http://www.w3.org/2000/svg">
<path d="M13.4171 0H0.582857C0.26 0 0 0.26 0 0.582857V13.4171C0 13.74 0.26 14 0.582857 14H13.4171C13.74 14 14 13.74 14 13.4171V0.582857C14 0.26 13.74 0 13.4171 0ZM12.8343 12.8343H1.16571V1.16571H12.8314V12.8343H12.8343Z" fill="white"/>
<path d="M3.72208 4.65714H10.3351C10.7983 4.65714 11.1714 4.39587 11.1714 4.07143C11.1714 3.74699 10.7983 3.48571 10.3351 3.48571H3.72208C3.2588 3.48571 2.88571 3.74699 2.88571 4.07143C2.88571 4.393 3.2588 4.65714 3.72208 4.65714Z" fill="white"/>
<path d="M3.72208 7.57143H10.3351C10.7983 7.57143 11.1714 7.31653 11.1714 7C11.1714 6.68347 10.7983 6.42857 10.3351 6.42857H3.72208C3.2588 6.42857 2.88571 6.68347 2.88571 7C2.88571 7.31653 3.2588 7.57143 3.72208 7.57143Z" fill="white"/>
<path d="M3.72208 10.5143H10.3351C10.7983 10.5143 11.1714 10.253 11.1714 9.92857C11.1714 9.60413 10.7983 9.34286 10.3351 9.34286H3.72208C3.2588 9.34286 2.88571 9.60413 2.88571 9.92857C2.88571 10.2501 3.2588 10.5143 3.72208 10.5143Z" fill="white"/>
<path d="M3.46 10.5086C3.7819 10.5086 4.04286 10.2476 4.04286 9.92571C4.04286 9.60381 3.7819 9.34286 3.46 9.34286C3.1381 9.34286 2.87714 9.60381 2.87714 9.92571C2.87714 10.2476 3.1381 10.5086 3.46 10.5086Z" fill="white"/>
<path d="M3.46 7.58286C3.7819 7.58286 4.04286 7.3219 4.04286 7C4.04286 6.6781 3.7819 6.41714 3.46 6.41714C3.1381 6.41714 2.87714 6.6781 2.87714 7C2.87714 7.3219 3.1381 7.58286 3.46 7.58286Z" fill="white"/>
<path d="M3.46 4.65714C3.7819 4.65714 4.04286 4.39619 4.04286 4.07429C4.04286 3.75238 3.7819 3.49143 3.46 3.49143C3.1381 3.49143 2.87714 3.75238 2.87714 4.07429C2.87714 4.39619 3.1381 4.65714 3.46 4.65714Z" fill="white"/>
</svg>
